<svg width="32" height="33" viewBox="0 0 32 33" fill="none" xmlns="http://www.w3.org/2000/svg">
    <path d="M30.4227 1.50213L10.5941 0.00958272C9.51257 -0.0501193 8.74146 0.183714 8.4911 0.308093L0.604728 5.68127C0.0639483 6.09919 -0.0211745 6.40267 0.00386162 6.50217V29.786C0.00386162 31.2188 1.25567 31.6268 1.88157 31.6516L24.6394 32.9949C25.5407 33.0546 26.0664 32.572 26.2167 32.3233L31.0236 26.2038C31.7446 25.3083 31.975 24.4085 32 24.0706V3.44245C32 2.129 30.9485 1.60164 30.4227 1.50213Z" fill="#1E1E1E"/>
    <path d="M2.18638 8.74205C2.184 8.05378 2.76622 7.50604 3.45776 7.54593L24.192 8.74215C24.907 8.7834 25.4656 9.37155 25.4656 10.0832V29.0248C25.4656 29.8833 24.7386 30.5648 23.8761 30.5149L3.38508 29.3288C2.75119 29.2922 2.25541 28.7718 2.25324 28.1409L2.18638 8.74205Z" fill="white"/>
    <path d="M8.04597 2.70018C8.86794 2.11859 9.86761 1.83856 10.8743 1.90792L28.6893 3.13536C29.1058 3.16405 29.2625 3.69138 28.9285 3.94026L26.0968 6.05041C25.6408 6.39023 25.0781 6.55796 24.5091 6.52363L4.78438 5.33373C4.643 5.3252 4.59098 5.14481 4.70635 5.06317L8.04597 2.70018Z" fill="white"/>
    <path d="M15.6499 24.8626L20.9979 25.2808L20.9812 27.301L12.8514 26.6653L15.6499 24.8626ZM4.46219 18.2457C4.47106 17.1711 4.68067 16.1767 5.09101 15.2625C5.51585 14.3351 6.09789 13.5348 6.83711 12.8614C7.57646 12.1736 8.42226 11.6591 9.37453 11.3178C10.3413 10.9633 11.3782 10.8293 12.4851 10.9159C13.5777 11.0013 14.5967 11.2961 15.542 11.8001C16.5018 12.2909 17.3452 12.9375 18.0722 13.7399C18.8138 14.5291 19.389 15.42 19.798 16.4126C20.2071 17.3908 20.4072 18.4172 20.3984 19.4918C20.3893 20.5951 20.1723 21.6104 19.7474 22.5378C19.3226 23.4652 18.7334 24.265 17.9798 24.9373C17.2407 25.5963 16.3878 26.096 15.4211 26.4361C14.469 26.7631 13.4466 26.8839 12.354 26.7985C11.247 26.7119 10.2136 26.4304 9.2537 25.9539C8.30817 25.4785 7.47177 24.8539 6.74449 24.0802C6.01721 23.3065 5.44908 22.4233 5.04009 21.4307C4.64548 20.4393 4.45284 19.3776 4.46219 18.2457ZM6.61846 18.4358C6.61172 19.2525 6.75634 20.0308 7.05233 20.7708C7.34844 21.4965 7.76021 22.1524 8.28764 22.7385C8.81507 23.3245 9.42976 23.7955 10.1317 24.1515C10.8337 24.5075 11.5944 24.7175 12.4138 24.7816C13.2189 24.8445 13.9749 24.7531 14.6818 24.5073C15.3888 24.2615 16.0032 23.8866 16.5253 23.3826C17.0473 22.8786 17.4622 22.2874 17.7699 21.6089C18.0777 20.9161 18.2351 20.1542 18.2419 19.3232C18.2485 18.5208 18.1039 17.7497 17.8079 17.0097C17.5119 16.2696 17.1001 15.6138 16.5726 15.042C16.0451 14.456 15.4304 13.985 14.7285 13.629C14.0266 13.2587 13.2732 13.0421 12.4681 12.9791C11.6487 12.915 10.8854 13.0131 10.1784 13.2732C9.47145 13.519 8.84977 13.8933 8.31335 14.3962C7.77693 14.8991 7.362 15.4975 7.06856 16.1914C6.77512 16.8853 6.62509 17.6334 6.61846 18.4358Z" fill="#1E1E1E"/>
</svg>
